<svg width="70" height="70" viewBox="0 0 70 70" fill="none" xmlns="http://www.w3.org/2000/svg">
<circle cx="35" cy="35" r="35" fill="#D31C2E"/>
<g clip-path="url(#clip0_1_1982)">
<path d="M33.35 39.8H16.15V52.7C16.15 53.8404 16.603 54.9342 17.4094 55.7406C18.2158 56.547 19.3096 57 20.45 57H50.55C51.6904 57 52.7842 56.547 53.5906 55.7406C54.397 54.9342 54.85 53.8404 54.85 52.7V39.8H37.65V44.1H33.35V39.8ZM33.35 37.65H14V24.75C14 22.385 15.935 20.45 18.3 20.45H26.9V18.3C26.9 17.1596 27.353 16.0658 28.1594 15.2594C28.9658 14.453 30.0596 14 31.2 14H39.8C40.9404 14 42.0342 14.453 42.8406 15.2594C43.647 16.0658 44.1 17.1596 44.1 18.3V20.45H52.7C53.8404 20.45 54.9342 20.903 55.7406 21.7094C56.547 22.5158 57 23.6096 57 24.75V37.65H37.65V33.35H33.35V37.65ZM39.8 20.45V18.3H31.2V20.45H39.8Z" fill="white"/>
</g>
<defs>
<clipPath id="clip0_1_1982">
<rect width="43" height="43" fill="white" transform="translate(14 14)"/>
</clipPath>
</defs>
</svg>
