<svg width="70" height="70" viewBox="0 0 70 70" fill="none" xmlns="http://www.w3.org/2000/svg">
<circle cx="35" cy="35" r="35" fill="#D31C2E"/>
<path d="M44.4583 21.1663C43.9832 21.1663 43.5274 20.9776 43.1914 20.6416C42.8554 20.3056 42.6667 19.8499 42.6667 19.3747C42.6667 18.8995 42.8554 18.4438 43.1914 18.1078C43.5274 17.7718 43.9832 17.583 44.4583 17.583H51.625C52.1002 17.583 52.5559 17.7718 52.8919 18.1078C53.2279 18.4438 53.4167 18.8995 53.4167 19.3747V26.5413C53.4167 27.0165 53.2279 27.4722 52.8919 27.8082C52.5559 28.1442 52.1002 28.333 51.625 28.333C51.1498 28.333 50.6941 28.1442 50.3581 27.8082C50.0221 27.4722 49.8333 27.0165 49.8333 26.5413V23.6998L39.4542 34.0789C39.1182 34.4148 38.6626 34.6035 38.1875 34.6035C37.7124 34.6035 37.2568 34.4148 36.9208 34.0789L31.9167 29.0748L22.4334 38.558C22.0955 38.8844 21.6429 39.065 21.1731 39.0609C20.7033 39.0568 20.254 38.8684 19.9218 38.5362C19.5896 38.204 19.4012 37.7547 19.3971 37.2849C19.393 36.8151 19.5736 36.3625 19.9 36.0246L30.65 25.2746C30.9859 24.9387 31.4416 24.7501 31.9167 24.7501C32.3918 24.7501 32.8474 24.9387 33.1834 25.2746L38.1875 30.2788L47.2999 21.1663H44.4583ZM22.9583 46.2497V51.6247C22.9583 52.0999 22.7696 52.5556 22.4336 52.8916C22.0976 53.2276 21.6418 53.4163 21.1667 53.4163C20.6915 53.4163 20.2358 53.2276 19.8998 52.8916C19.5638 52.5556 19.375 52.0999 19.375 51.6247V46.2497C19.375 45.7745 19.5638 45.3188 19.8998 44.9828C20.2358 44.6468 20.6915 44.458 21.1667 44.458C21.6418 44.458 22.0976 44.6468 22.4336 44.9828C22.7696 45.3188 22.9583 45.7745 22.9583 46.2497ZM31.9167 39.083C31.9167 38.6078 31.7279 38.1521 31.3919 37.8161C31.0559 37.4801 30.6002 37.2913 30.125 37.2913C29.6498 37.2913 29.1941 37.4801 28.8581 37.8161C28.5221 38.1521 28.3333 38.6078 28.3333 39.083V51.6247C28.3333 52.0999 28.5221 52.5556 28.8581 52.8916C29.1941 53.2276 29.6498 53.4163 30.125 53.4163C30.6002 53.4163 31.0559 53.2276 31.3919 52.8916C31.7279 52.5556 31.9167 52.0999 31.9167 51.6247V39.083ZM39.0833 40.8747C39.5585 40.8747 40.0142 41.0634 40.3502 41.3994C40.6862 41.7354 40.875 42.1912 40.875 42.6663V51.6247C40.875 52.0999 40.6862 52.5556 40.3502 52.8916C40.0142 53.2276 39.5585 53.4163 39.0833 53.4163C38.6082 53.4163 38.1524 53.2276 37.8164 52.8916C37.4804 52.5556 37.2917 52.0999 37.2917 51.6247V42.6663C37.2917 42.1912 37.4804 41.7354 37.8164 41.3994C38.1524 41.0634 38.6082 40.8747 39.0833 40.8747ZM49.8333 33.708C49.8333 33.2328 49.6446 32.7771 49.3086 32.4411C48.9726 32.1051 48.5168 31.9163 48.0417 31.9163C47.5665 31.9163 47.1108 32.1051 46.7748 32.4411C46.4388 32.7771 46.25 33.2328 46.25 33.708V51.6247C46.25 52.0999 46.4388 52.5556 46.7748 52.8916C47.1108 53.2276 47.5665 53.4163 48.0417 53.4163C48.5168 53.4163 48.9726 53.2276 49.3086 52.8916C49.6446 52.5556 49.8333 52.0999 49.8333 51.6247V33.708Z" fill="white"/>
</svg>
