<svg width="70" height="70" viewBox="0 0 70 70" fill="none" xmlns="http://www.w3.org/2000/svg">
<circle cx="35" cy="35" r="35" fill="#D31C2E"/>
<g clip-path="url(#clip0_1_1989)">
<path d="M39.2759 16.8219C38.166 13.0594 32.834 13.0594 31.7241 16.8219L31.4553 17.7356C31.2895 18.2989 30.9997 18.8179 30.6071 19.2546C30.2146 19.6913 29.7293 20.0346 29.1868 20.2594C28.6443 20.4841 28.0584 20.5845 27.472 20.5534C26.8857 20.5222 26.3137 20.3601 25.7981 20.0791L24.965 19.6223C21.5169 17.7464 17.7464 21.5169 19.6249 24.9623L20.0791 25.7981C21.2778 28.0019 20.1409 30.7458 17.7356 31.4553L16.8219 31.7241C13.0594 32.834 13.0594 38.166 16.8219 39.2759L17.7356 39.5447C18.2989 39.7105 18.8179 40.0003 19.2546 40.3929C19.6913 40.7854 20.0346 41.2707 20.2594 41.8132C20.4841 42.3557 20.5845 42.9416 20.5534 43.528C20.5222 44.1143 20.3601 44.6863 20.0791 45.2019L19.6223 46.035C17.7464 49.4831 21.5169 53.2536 24.9623 51.3751L25.7981 50.9209C26.3137 50.6399 26.8857 50.4778 27.472 50.4466C28.0584 50.4155 28.6443 50.5159 29.1868 50.7406C29.7293 50.9654 30.2146 51.3087 30.6071 51.7454C30.9997 52.1821 31.2895 52.7011 31.4553 53.2644L31.7241 54.1781C32.834 57.9406 38.166 57.9406 39.2759 54.1781L39.5447 53.2644C39.7105 52.7011 40.0003 52.1821 40.3929 51.7454C40.7854 51.3087 41.2707 50.9654 41.8132 50.7406C42.3557 50.5159 42.9416 50.4155 43.528 50.4466C44.1143 50.4778 44.6863 50.6399 45.2019 50.9209L46.035 51.3778C49.4831 53.2536 53.2536 49.4831 51.3751 46.0377L50.9209 45.2019C50.6399 44.6863 50.4778 44.1143 50.4466 43.528C50.4155 42.9416 50.5159 42.3557 50.7406 41.8132C50.9654 41.2707 51.3087 40.7854 51.7454 40.3929C52.1821 40.0003 52.7011 39.7105 53.2644 39.5447L54.1781 39.2759C57.9406 38.166 57.9406 32.834 54.1781 31.7241L53.2644 31.4553C52.7011 31.2895 52.1821 30.9997 51.7454 30.6071C51.3087 30.2146 50.9654 29.7293 50.7406 29.1868C50.5159 28.6443 50.4155 28.0584 50.4466 27.472C50.4778 26.8857 50.6399 26.3137 50.9209 25.7981L51.3778 24.965C53.2536 21.5169 49.4831 17.7464 46.0377 19.6249L45.2019 20.0791C44.6863 20.3601 44.1143 20.5222 43.528 20.5534C42.9416 20.5845 42.3557 20.4841 41.8132 20.2594C41.2707 20.0346 40.7854 19.6913 40.3929 19.2546C40.0003 18.8179 39.7105 18.2989 39.5447 17.7356L39.2759 16.8219ZM35.5 43.3744C33.4116 43.3744 31.4087 42.5448 29.932 41.068C28.4552 39.5913 27.6256 37.5884 27.6256 35.5C27.6256 33.4116 28.4552 31.4087 29.932 29.932C31.4087 28.4552 33.4116 27.6256 35.5 27.6256C37.5877 27.6256 39.5899 28.455 41.0661 29.9312C42.5424 31.4074 43.3717 33.4096 43.3717 35.4973C43.3717 37.585 42.5424 39.5872 41.0661 41.0634C39.5899 42.5397 37.5877 43.369 35.5 43.369V43.3744Z" fill="white"/>
</g>
<defs>
<clipPath id="clip0_1_1989">
<rect width="43" height="43" fill="white" transform="translate(14 14)"/>
</clipPath>
</defs>
</svg>
