<svg width="24" height="24" viewBox="0 0 24 24" fill="none" xmlns="http://www.w3.org/2000/svg">
<rect width="24" height="24" rx="4" fill="white"/>
<path d="M8.47694 15.15L16.9519 6.675C17.1519 6.475 17.3853 6.375 17.6519 6.375C17.9186 6.375 18.1519 6.475 18.3519 6.675C18.5519 6.875 18.6519 7.11267 18.6519 7.388C18.6519 7.66333 18.5519 7.90067 18.3519 8.1L9.17694 17.3C8.97694 17.5 8.74361 17.6 8.47694 17.6C8.21027 17.6 7.97694 17.5 7.77694 17.3L3.47694 13C3.27694 12.8 3.18094 12.5627 3.18894 12.288C3.19694 12.0133 3.30127 11.7757 3.50194 11.575C3.7026 11.3743 3.94027 11.2743 4.21494 11.275C4.4896 11.2757 4.72694 11.3757 4.92694 11.575L8.47694 15.15Z" fill="black"/>
</svg>
