<svg width="59" height="54" viewBox="0 0 59 54" fill="none" xmlns="http://www.w3.org/2000/svg">
<path d="M23.2165 0.0743942C17.4291 0.668274 11.8862 3.21846 7.74072 7.21259C3.6185 11.1834 1.12653 16.1906 0.194959 22.3856C-0.0379344 23.9926 -0.0728685 28.6272 0.148381 30.2225C1.02173 36.5921 3.52534 41.7391 7.84552 46.0593C11.7348 49.9369 16.5441 52.4289 22.1685 53.4653C28.2703 54.5948 34.9893 53.7215 40.2876 51.1131C43.9557 49.3081 47.6587 46.2805 49.4287 43.6372L49.9993 42.7755V34.1118C49.9993 25.5995 49.9993 25.4482 49.7664 25.2153C49.5451 24.994 49.3821 24.9824 45.551 24.9824H41.5685L42.6166 23.8994C44.6311 21.8267 50.7329 15.0262 52.5844 12.7788L52.9105 12.3945L54.2962 13.5589C55.0647 14.211 55.7285 14.6885 55.7634 14.6186C55.8449 14.4789 56.2408 12.1965 57.2772 5.82687C57.6964 3.26504 58.0574 1.05255 58.0923 0.901165C58.1273 0.749786 58.104 0.644985 58.0225 0.644985C57.9526 0.644985 57.3354 0.877876 56.6484 1.15735C55.973 1.44847 53.4228 2.49649 50.9891 3.49793C45.8654 5.60562 45.225 5.88509 45.225 5.98989C45.225 6.03647 45.7956 6.5372 46.4942 7.09614C47.1929 7.65509 47.845 8.20239 47.9498 8.31884C48.1478 8.52844 48.5321 8.05101 43.7112 13.5822C37.6676 20.5225 33.0679 24.8776 27.6415 28.7902C25.627 30.2341 24.707 30.8513 21.8191 32.6446L19.3155 34.205L29.656 34.1235L39.9849 34.0419V36.7784V39.5149L39.2047 40.1554C36.9456 41.9836 34.1159 43.2995 30.9486 43.9865C29.8423 44.2194 29.3649 44.2543 27.1757 44.2543C24.4159 44.2543 23.333 44.0913 21.2486 43.3577C15.8454 41.4596 11.7814 36.7668 10.5238 30.9328C9.76689 27.4511 9.96485 23.4453 11.0595 20.2896C12.5034 16.1441 15.5776 12.6623 19.3854 10.904C22.8555 9.30863 27.1291 9.06409 30.9136 10.2635C32.4624 10.7526 33.5686 11.2882 35.0708 12.278C36.1188 12.9651 36.4099 13.0815 36.6778 12.8952C36.8059 12.8137 38.9252 10.3217 41.2425 7.53864C41.8946 6.75845 42.4302 6.03647 42.4302 5.94332C42.4302 5.52411 39.356 3.45135 37.2484 2.43827C34.966 1.34367 32.6138 0.621693 30.0869 0.237419C28.5964 0.0161705 24.7187 -0.0769882 23.2165 0.0743942Z" fill="#D31C2E"/>
</svg>
