<svg width="28" height="28" viewBox="0 0 28 28" fill="none" xmlns="http://www.w3.org/2000/svg">
<path d="M12.8904 3.41489C13.2397 2.34003 14.7603 2.34003 15.1096 3.41489L16.8813 8.86762C17.0375 9.34831 17.4854 9.67376 17.9908 9.67376H23.7242C24.8543 9.67376 25.3242 11.12 24.4099 11.7843L19.7715 15.1543C19.3626 15.4513 19.1915 15.9779 19.3477 16.4586L21.1194 21.9113C21.4687 22.9862 20.2384 23.88 19.3241 23.2157L14.6857 19.8458C14.2768 19.5487 13.7232 19.5487 13.3143 19.8458L8.67589 23.2157C7.76155 23.88 6.53133 22.9862 6.88057 21.9113L8.65227 16.4586C8.80846 15.9779 8.63735 15.4513 8.22845 15.1543L3.59009 11.7843C2.67576 11.12 3.14566 9.67376 4.27584 9.67376H10.0092C10.5146 9.67376 10.9626 9.34831 11.1187 8.86761L12.8904 3.41489Z" fill="#D31C2E"/>
</svg>
